<?xml version="1.0" encoding="UTF-8" standalone="no"?>
<svg
   xmlns:dc="http://purl.org/dc/elements/1.1/"
   xmlns:cc="http://creativecommons.org/ns#"
   xmlns:rdf="http://www.w3.org/1999/02/22-rdf-syntax-ns#"
   xmlns:svg="http://www.w3.org/2000/svg"
   xmlns="http://www.w3.org/2000/svg"
   xmlns:sodipodi="http://sodipodi.sourceforge.net/DTD/sodipodi-0.dtd"
   xmlns:inkscape="http://www.inkscape.org/namespaces/inkscape"
   width="24"
   height="24"
   id="svg2"
   version="1.1"
   inkscape:version="0.91 r13725"
   sodipodi:docname="star-on.svg">
  <metadata
     id="metadata10">
    <rdf:RDF>
      <cc:Work
         rdf:about="">
        <dc:format>image/svg+xml</dc:format>
        <dc:type
           rdf:resource="http://purl.org/dc/dcmitype/StillImage" />
      </cc:Work>
    </rdf:RDF>
  </metadata>
  <defs
     id="defs8" />
  <sodipodi:namedview
     pagecolor="#ffffff"
     bordercolor="#666666"
     borderopacity="1"
     objecttolerance="10"
     gridtolerance="10"
     guidetolerance="10"
     inkscape:pageopacity="0"
     inkscape:pageshadow="2"
     inkscape:window-width="1920"
     inkscape:window-height="1017"
     id="namedview6"
     showgrid="false"
     inkscape:zoom="27.812867"
     inkscape:cx="15.668883"
     inkscape:cy="11.784882"
     inkscape:window-x="1912"
     inkscape:window-y="231"
     inkscape:window-maximized="1"
     inkscape:current-layer="svg2" />
  <path
     fill="#9c3"
     stroke="#682"
     d="M 12,2.5 14.4,9.5 21.5,9.5 15.8,13.75 18.5,21.5 12,16.625 5.5,21.5 8.2,13.75 2.5,9.5 9.6,9.5 z"
     id="path4"
     style="fill:#ffb400;fill-opacity:1;stroke:#50a9f0;stroke-opacity:1" />
  <path
     style="opacity:0.25600011;fill:#ffb400;fill-opacity:1;stroke:#50a9f0;stroke-width:0.05084746;stroke-opacity:1"
     d="m 4.5762712,22.724906 c 0,-0.02357 2.8816378,-8.324278 3.0358352,-8.74488 0.011513,-0.0314 -1.4487218,-1.152589 -3.2449654,-2.491525 L 1.1012432,9.0540722 5.1826662,9.0286485 9.2640895,9.0032248 10.618741,5.0498349 C 11.363799,2.8754705 11.985366,1.0964451 12,1.0964451 c 0.01463,0 0.636201,1.7790254 1.381259,3.9533898 l 1.354651,3.9533899 4.083903,0.025424 4.083901,0.025424 -3.2681,2.4351512 c -1.797454,1.339333 -3.258732,2.460519 -3.247285,2.491525 0.34835,0.943485 3.035943,8.742272 3.018683,8.759533 -0.01362,0.01362 -1.674162,-1.212538 -3.690096,-2.724792 C 13.700982,18.503235 12.02837,17.265937 12,17.265937 c -0.02837,0 -1.698709,1.235593 -3.7118644,2.745762 -2.0131556,1.51017 -3.671889,2.745763 -3.6860738,2.745763 -0.014185,0 -0.025791,-0.01465 -0.025791,-0.03256 z"
     id="path4133"
     inkscape:connector-curvature="0" />
  <path
     style="opacity:0.25600011;fill:#50a9fa;fill-opacity:0;stroke:#50a9f0;stroke-width:0.05084746;stroke-opacity:1"
     d="m 4.5762712,22.722682 c 0,-0.02613 2.924014,-8.448718 3.034742,-8.741538 0.011642,-0.03079 -1.4493361,-1.151976 -3.2466199,-2.491526 L 1.0966049,9.0540722 5.1718806,9.0410588 9.2471563,9.0280449 9.3441686,8.7613978 c 0.053357,-0.1466563 0.6665444,-1.9312663 1.3626394,-3.9658002 0.696094,-2.0345339 1.277966,-3.6991525 1.293049,-3.6991525 0.01508,0 0.597132,1.6646186 1.293442,3.6991525 0.69631,2.0345339 1.309562,3.8191439 1.362781,3.9658002 l 0.09676,0.2666471 4.076091,0.013014 4.07609,0.013013 -3.26843,2.4359981 c -1.797637,1.339799 -3.258982,2.460985 -3.247435,2.491525 0.270053,0.71424 3.036207,8.740331 3.018437,8.7581 -0.01394,0.01394 -1.674747,-1.211952 -3.690681,-2.724206 C 13.700982,18.503235 12.02837,17.265937 12,17.265937 c -0.02837,0 -1.698709,1.235593 -3.7118644,2.745762 -2.0131556,1.51017 -3.671889,2.745763 -3.6860738,2.745763 -0.014185,0 -0.025791,-0.01565 -0.025791,-0.03478 z"
     id="path4135"
     inkscape:connector-curvature="0" />
  <path
     style="opacity:0.25600011;fill:#50a9f0;fill-opacity:1;stroke:#50a9f0;stroke-width:0.05084746;stroke-opacity:1"
     d="m 4.5882248,22.668479 c 0.021443,-0.08012 2.9454484,-8.486607 3.0141174,-8.665555 0.020422,-0.05322 -0.9111641,-0.775508 -3.2396136,-2.511776 l -3.268279,-2.4370758 4.0751941,-0.013013 4.0751939,-0.013013 0.1492892,-0.41919 c 0.082109,-0.2305545 0.6954792,-2.0151645 1.3630442,-3.9658001 0.667566,-1.9506356 1.226793,-3.5466102 1.242727,-3.5466102 0.01594,0 0.552065,1.5273305 1.191401,3.3940678 0.639337,1.8667373 1.253018,3.651483 1.363737,3.9661017 l 0.201308,0.5720339 4.091986,0 4.091987,0 -3.271006,2.4410477 c -1.799053,1.342576 -3.268233,2.469483 -3.264843,2.504237 0.0034,0.03475 0.686355,2.015395 1.5177,4.401422 0.831345,2.386029 1.49996,4.34981 1.48581,4.36396 -0.01415,0.01415 -1.675128,-1.211572 -3.691062,-2.723826 C 13.700982,18.503235 12.02837,17.265937 12,17.265937 c -0.02837,0 -1.698709,1.235593 -3.7118644,2.745762 -2.0131556,1.51017 -3.6745577,2.745763 -3.6920042,2.745763 -0.017447,0 -0.021005,-0.04004 -0.00791,-0.08898 z"
     id="path4137"
     inkscape:connector-curvature="0" />
  <path
     style="opacity:0.25600011;fill:#50a9f0;fill-opacity:1;stroke:#50a9f0;stroke-width:0.05084746;stroke-opacity:1"
     d="m 17.135593,20.940765 c -3.697551,-2.757002 -4.95678,-3.676732 -5.076737,-3.708007 -0.149418,-0.03896 0.01949,-0.158014 -3.9643536,2.794278 -1.7704814,1.312043 -3.2321956,2.372394 -3.2482539,2.356336 -0.016058,-0.01606 0.3890553,-1.236975 0.9002524,-2.713147 0.9643608,-2.784762 1.8412969,-5.379187 1.8991994,-5.618802 0.043143,-0.178536 0.092633,-0.138216 -3.3877768,-2.760063 L 1.4904965,9.2066146 4.8511804,9.1687185 C 6.6995568,9.1478756 8.4660717,9.1172171 8.77677,9.1005885 L 9.3416751,9.0703546 9.3952739,8.909671 C 9.4247529,8.821295 9.9797771,7.2273773 10.62866,5.3676315 c 0.648884,-1.8597457 1.215814,-3.4900423 1.259846,-3.6228813 0.04403,-0.132839 0.09303,-0.2415254 0.108889,-0.2415254 0.03617,0 -0.02989,-0.1851821 1.435519,4.023858 l 1.232762,3.5408072 0.256145,0.030785 c 0.14088,0.016932 1.091315,0.03409 2.112077,0.03813 1.020763,0.00404 2.673978,0.0214 3.673812,0.038577 l 1.817879,0.031233 -2.453472,1.841785 c -2.963386,2.224569 -3.637532,2.74631 -3.70046,2.863892 -0.04771,0.08915 0.117793,0.594143 2.212811,6.75175 0.326644,0.96006 0.58618,1.752029 0.576749,1.759932 -0.0094,0.0079 -0.920963,-0.659541 -2.025624,-1.483209 z"
     id="path4143"
     inkscape:connector-curvature="0" />
  <path
     style="opacity:0.25600011;fill:#50a9f0;fill-opacity:1;stroke:#50a9f0;stroke-width:0.05084746;stroke-opacity:1"
     d="m 17.312043,21.025202 c -3.717807,-2.763089 -4.981864,-3.687832 -5.202162,-3.805732 -0.08374,-0.04482 -0.137096,-0.04425 -0.224288,0.0024 -0.13813,0.07388 -1.183329,0.829785 -2.5296608,1.829484 -0.868379,0.644803 -3.4447594,2.535446 -4.1337457,3.033496 -0.1341533,0.09698 -0.2561349,0.1641 -0.2710703,0.149165 -0.014935,-0.01494 0.2286843,-0.778479 0.541377,-1.696763 1.9506858,-5.72859 2.1964163,-6.475029 2.168378,-6.586742 -0.03726,-0.148458 -0.5621848,-0.564136 -3.6148541,-2.862539 L 1.6147916,9.2574621 4.3031585,9.2190504 C 5.7817603,9.1979237 7.5258879,9.1636017 8.1789976,9.1427792 L 9.3664703,9.1049197 10.670523,5.3550978 C 11.387752,3.2926959 11.986017,1.6052139 12,1.605138 c 0.01398,-7.58e-5 0.608278,1.6713642 1.320655,3.7143115 0.712378,2.0429471 1.310853,3.7397248 1.329946,3.7706166 0.02974,0.048119 3.637292,0.1171104 7.258365,0.1388105 l 0.527609,0.00316 -2.586931,1.9452774 c -2.697655,2.028538 -3.422833,2.592175 -3.493406,2.715215 -0.05933,0.103437 0.112695,0.646918 1.500871,4.741747 0.667543,1.969113 1.20663,3.601457 1.197972,3.627432 -0.0087,0.02597 -0.793025,-0.530454 -1.743038,-1.236508 z"
     id="path4145"
     inkscape:connector-curvature="0" />
  <path
     style="opacity:0.25600011;fill:#50a9f0;fill-opacity:1;stroke:#50a9f0;stroke-width:0.05084746;stroke-opacity:1"
     d="m 4.9830508,22.185833 c 0,-0.01058 0.4261838,-1.27633 0.9470752,-2.812784 1.3394704,-3.950988 1.7478401,-5.20293 1.7478401,-5.358368 0,-0.08672 -0.05955,-0.192383 -0.1652543,-0.293222 C 7.2916744,13.510597 5.8606444,12.407592 3.6012756,10.706615 L 1.7439397,9.3083095 3.6812918,9.2718595 C 6.6708397,9.2156131 9.359224,9.144001 9.383252,9.1199731 9.3951966,9.108028 9.883803,7.7268732 10.469043,6.0507397 11.400972,3.381686 11.880099,2.0192644 11.978872,1.757462 c 0.01588,-0.042087 0.127126,0.2085972 0.248213,0.5593221 0.249676,0.7231788 2.091082,5.9550498 2.272762,6.4574542 l 0.119455,0.3303351 0.290218,0.036252 c 0.15962,0.019939 1.872312,0.058703 3.805982,0.086144 1.933669,0.02744 3.524988,0.059117 3.536264,0.070393 0.01128,0.011276 -0.889276,0.7030826 -2.001226,1.5373486 -2.327738,1.74644 -3.709038,2.811379 -3.846229,2.965323 -0.07575,0.085 -0.08867,0.151292 -0.06198,0.31815 0.01854,0.115926 0.616709,1.952025 1.329269,4.080219 0.712561,2.128194 1.288809,3.889712 1.280551,3.914484 -0.01663,0.0499 -0.873742,-0.558509 -2.68096,-1.90304 -1.390336,-1.034381 -3.335161,-2.46341 -3.820016,-2.806892 -0.185331,-0.131293 -0.387702,-0.238714 -0.449713,-0.238714 -0.126627,0 -0.26099,0.09415 -2.8234909,1.978473 -3.2092056,2.359875 -4.1949153,3.074938 -4.1949153,3.043118 z"
     id="path4147"
     inkscape:connector-curvature="0" />
  <path
     style="opacity:0.25600011;fill:#50a9f0;fill-opacity:1;stroke:#50a9f0;stroke-width:0.05084746;stroke-opacity:1"
     d="m 5.0992125,21.956615 c 0.01448,-0.04894 0.5630311,-1.682128 1.219002,-3.629304 0.6559709,-1.947177 1.2429499,-3.726645 1.304398,-3.954375 L 7.7343361,13.958883 7.6300322,13.812401 C 7.5100551,13.643909 6.2890618,12.689095 3.6909361,10.732038 L 1.8683433,9.359157 3.1333241,9.3253821 c 0.6957396,-0.018576 2.3618004,-0.06008 3.7023575,-0.09223 1.340557,-0.032151 2.4745041,-0.078325 2.5198819,-0.1026112 0.076238,-0.040801 0.407038,-0.9527014 2.1433875,-5.908571 0.261594,-0.7466395 0.494348,-1.338849 0.517231,-1.3160211 0.02288,0.022828 0.608008,1.6499242 1.300276,3.6157694 1.115954,3.1689907 1.272509,3.5793835 1.380725,3.6194152 0.06713,0.024833 1.42692,0.067563 3.021757,0.094956 1.594837,0.027393 3.246257,0.062866 3.669822,0.078829 L 22.158881,9.3439429 21.643,9.736529 c -0.283735,0.2159222 -1.32817,1.006978 -2.320966,1.757901 -2.383603,1.80289 -2.94788,2.253065 -3.001759,2.394778 -0.05818,0.153016 -0.107968,-0.01 1.331865,4.360012 0.671152,2.036993 1.208796,3.715102 1.194766,3.729132 -0.03834,0.03834 -0.506216,-0.28964 -2.293365,-1.607641 -3.538637,-2.609705 -4.079359,-3.002311 -4.310256,-3.129585 -0.231549,-0.127634 -0.24532,-0.129291 -0.401833,-0.04836 -0.197549,0.102156 -0.418921,0.261561 -3.6550113,2.631872 -3.1345762,2.295955 -3.0306908,2.220955 -3.0763021,2.220955 -0.02049,0 -0.025406,-0.04004 -0.010926,-0.08898 z"
     id="path4149"
     inkscape:connector-curvature="0" />
  <path
     style="opacity:0.25600011;fill:#50a9f0;fill-opacity:1;stroke:#50a9f0;stroke-width:0.05084746;stroke-opacity:1"
     d="m 5.1436548,21.943172 c 0.100519,-0.269867 2.5811611,-7.77864 2.6039199,-7.881929 0.054828,-0.248828 -0.098743,-0.374816 -4.7835235,-3.92438 L 1.9874245,9.3968929 3.1674411,9.3640973 c 0.649009,-0.018038 2.0380674,-0.054789 3.0867962,-0.081669 1.0487288,-0.026879 2.186402,-0.063368 2.5281625,-0.081084 L 9.4037827,9.1691319 9.6044349,8.6539749 C 9.7147937,8.3706387 10.261561,6.8460214 10.819474,5.2659366 11.377387,3.6858519 11.873588,2.3015298 11.922144,2.1896654 l 0.08828,-0.2033898 0.06675,0.1779661 c 0.03671,0.097881 0.489835,1.3677966 1.006934,2.8220339 1.074331,3.0213392 1.449915,4.0437397 1.515129,4.1244239 0.06905,0.085434 0.710526,0.1142105 3.934653,0.1765078 1.622034,0.031341 3.068797,0.071792 3.215029,0.089891 l 0.265876,0.032906 -0.799775,0.6066247 c -3.344035,2.536431 -4.392801,3.344487 -4.654379,3.586117 -0.290401,0.268255 -0.299435,0.284328 -0.271498,0.483051 0.01589,0.11306 0.511309,1.681411 1.100921,3.485224 1.239238,3.791227 1.390726,4.270049 1.360506,4.30027 -0.03237,0.03237 -0.48386,-0.290589 -3.445493,-2.464633 -2.729119,-2.003363 -3.148985,-2.293264 -3.321349,-2.293264 -0.134481,0 -0.322282,0.131632 -3.5176343,2.465563 -3.5072657,2.561758 -3.3559102,2.454055 -3.3224469,2.364215 z"
     id="path4151"
     inkscape:connector-curvature="0" />
  <path
     style="opacity:0.25600011;fill:#50a9f0;fill-opacity:1;stroke:#50a9f0;stroke-width:0.05084746;stroke-opacity:1"
     d="m 5.2372881,21.810578 c 0,-0.0174 0.5720339,-1.757682 1.2711865,-3.867302 0.6991525,-2.10962 1.2711864,-3.885243 1.2711864,-3.94583 0,-0.21727 -0.5056892,-0.63342 -3.9037272,-3.212519 C 2.9204075,10.059685 2.1466573,9.4582622 2.1564891,9.4484304 c 0.00983,-0.00983 1.1818217,-0.050051 2.6044221,-0.089377 1.4226006,-0.039326 3.052124,-0.087297 3.621163,-0.1066042 L 9.4166908,9.217347 9.5096969,9.0003727 C 9.5608505,8.8810373 10.131857,7.2998085 10.7786,5.4865321 c 0.646743,-1.8132767 1.191855,-3.3126196 1.21136,-3.3318733 0.01951,-0.019254 0.423384,1.0561701 0.897509,2.3898306 1.097415,3.0869071 1.629797,4.5302386 1.695091,4.5955323 0.07462,0.074625 1.305333,0.1300561 4.281847,0.1928558 1.440254,0.030386 2.714652,0.068304 2.831996,0.084261 l 0.213352,0.029012 -2.247251,1.7110755 c -2.412525,1.836917 -3.157329,2.420267 -3.310077,2.592537 -0.181851,0.205094 -0.250459,-0.04543 1.290163,4.711089 1.010818,3.120802 1.075978,3.330508 1.034855,3.330508 -0.04274,0 -0.462017,-0.301603 -3.041852,-2.188128 -2.586776,-1.891601 -3.214023,-2.334652 -3.493818,-2.467831 l -0.188733,-0.08984 -0.294317,0.193147 c -0.161875,0.106231 -1.658404,1.185475 -3.3256194,2.398321 -1.6672157,1.212846 -3.0458174,2.205174 -3.0635594,2.205174 -0.017742,0 -0.032258,-0.01423 -0.032258,-0.03163 z"
     id="path4153"
     inkscape:connector-curvature="0" />
  <path
     style="opacity:0.656;fill:#50a9f0;fill-opacity:1;stroke:#50a9f0;stroke-width:0.05084746;stroke-opacity:1"
     d="M 5.316227,21.679342 C 5.3362802,21.615105 5.7481114,20.361276 6.2314073,18.893055 7.9142354,13.780738 7.8402854,14.025556 7.7527947,13.856367 7.6517303,13.66093 6.9231098,13.07088 4.3781272,11.123497 L 2.2732035,9.5128409 2.4713475,9.4786388 C 2.5803267,9.4598278 4.1224576,9.4072358 5.8983051,9.361768 7.6741525,9.3162997 9.2001213,9.2677287 9.2893464,9.2538321 9.4394771,9.2304498 9.4635981,9.1974127 9.6128115,8.8108104 9.7396724,8.4821232 11.537488,3.5090982 11.882367,2.5328858 c 0.04199,-0.118856 0.09206,-0.2161017 0.111265,-0.2161017 0.04766,0 0.08667,0.1049145 1.711228,4.6016949 0.353617,0.9788136 0.688967,1.8870234 0.745222,2.0182434 0.114933,0.2680917 0.123954,0.2717969 0.778732,0.3198468 0.37095,0.027221 5.640124,0.177183 6.266949,0.1783586 0.146822,2.543e-4 0.266949,0.018638 0.266949,0.040805 0,0.022168 -0.930018,0.7486512 -2.066707,1.6144072 -2.285791,1.740966 -3.365174,2.596148 -3.4466,2.730698 -0.08116,0.134111 0.05414,0.60177 1.239389,4.284082 0.585108,1.817796 1.080539,3.373103 1.100958,3.456237 l 0.03712,0.151152 -0.148184,-0.09662 c -0.0815,-0.05314 -1.349456,-0.969508 -2.817676,-2.036377 -2.857204,-2.07616 -3.159429,-2.288773 -3.498641,-2.461266 l -0.21898,-0.111354 -0.314919,0.21477 C 11.455273,17.339588 10.31822,18.157186 9.1016949,19.03835 5.3145916,21.781456 5.2759293,21.808429 5.316227,21.679342 Z"
     id="path4155"
     inkscape:connector-curvature="0" />
  <path
     style="opacity:0.656;fill:#50a9f0;fill-opacity:1;stroke:#50a9f0;stroke-width:0.05084746;stroke-opacity:1"
     d="m 5.3013788,21.676954 c 0.049731,-0.131029 1.9242738,-5.844943 2.1955769,-6.692478 0.155488,-0.485736 0.2827053,-0.93416 0.2827053,-0.996498 0,-0.217438 -0.4311824,-0.578169 -3.4322034,-2.871411 C 3.3127118,10.325862 2.4226508,9.6372524 2.3695442,9.5863236 2.2752479,9.4958939 2.2770341,9.4930821 2.4458154,9.4662473 2.5408711,9.4511339 3.9228813,9.4038646 5.5169491,9.3612036 7.1110169,9.3185431 8.6483863,9.2699222 8.9333257,9.2531578 L 9.4513968,9.2226768 9.6120696,8.7824426 c 0.08837,-0.242129 0.6025684,-1.6643873 1.1426654,-3.1605738 1.204776,-3.3374989 1.192596,-3.3050847 1.241862,-3.3050847 0.05229,0 0.110548,0.1533751 1.121828,2.9533691 1.123177,3.1098099 1.371547,3.7700585 1.449197,3.8524446 0.09738,0.103322 0.929219,0.1498805 4.216436,0.2359963 1.619791,0.042434 2.958008,0.090087 2.973816,0.1058949 0.01581,0.015808 -0.02013,0.067219 -0.07987,0.1142471 -0.05974,0.047028 -0.928888,0.7135249 -1.931444,1.4811039 -2.642869,2.023438 -3.471375,2.689419 -3.503128,2.815931 -0.03749,0.149353 0.154407,0.791479 1.347123,4.507872 0.560789,1.747366 1.019616,3.206052 1.019616,3.241525 0,0.03547 -0.01385,0.0645 -0.03079,0.0645 -0.01693,0 -1.269688,-0.899645 -2.783898,-1.999211 -2.777866,-2.017189 -3.377525,-2.440056 -3.683641,-2.597633 l -0.167819,-0.08639 -0.340656,0.24163 c -0.18736,0.132896 -1.530485,1.101897 -2.984722,2.153336 -3.2616007,2.358192 -3.2347369,2.339112 -3.2933786,2.339112 -0.026406,0 -0.037154,-0.0286 -0.023887,-0.06356 z"
     id="path4157"
     inkscape:connector-curvature="0" />
  <path
     style="opacity:0.656;fill:#50a9f0;fill-opacity:1;stroke:#50a9f0;stroke-width:0.05084746;stroke-opacity:1"
     d="m 5.2881356,21.710008 c 0,-0.01678 0.478894,-1.486904 1.064209,-3.266949 C 7.510414,14.921169 7.779661,14.0796 7.779661,13.98178 c 0,-0.18634 -0.6047782,-0.68961 -3.3559322,-2.792658 C 2.3419505,9.5977602 2.2608253,9.5310254 2.3484681,9.481978 2.386341,9.4607832 3.6524545,9.4076248 5.1620538,9.3638482 6.671653,9.3200715 8.2469186,9.2694488 8.6626439,9.2513527 L 9.4185081,9.2184514 9.5096898,9.0091429 C 9.5598396,8.8940237 10.104175,7.4040722 10.719324,5.69814 c 1.314249,-3.644679 1.214902,-3.3813559 1.275721,-3.3813559 0.0618,0 0.164494,0.2685888 1.297189,3.3926295 1.187997,3.2765642 1.238004,3.4050232 1.341903,3.4470649 0.140819,0.056981 1.597721,0.1227244 4.426046,0.1997268 1.464033,0.039859 2.675474,0.086066 2.692091,0.1026829 0.04833,0.048327 -0.06404,0.138901 -2.150579,1.7335238 -2.054669,1.570264 -3.152335,2.436386 -3.273925,2.583316 -0.146068,0.17651 -0.14086,0.195013 1.462987,5.196942 0.790087,2.464053 0.863602,2.717572 0.787633,2.716181 -0.02447,-4.58e-4 -1.245763,-0.871738 -2.713983,-1.9362 -2.87535,-2.084631 -3.646719,-2.620969 -3.838887,-2.6692 -0.0838,-0.02103 -0.17626,0.0065 -0.290341,0.08655 C 11.643119,17.234571 10.412288,18.122656 9,19.143519 5.4120192,21.737068 5.2881356,21.822725 5.2881356,21.710008 Z"
     id="path4159"
     inkscape:connector-curvature="0" />
  <path
     style="opacity:0.656;fill:#50a9f0;fill-opacity:1;stroke:#50a9f0;stroke-width:0.05084746;stroke-opacity:1"
     d=""
     id="path4163"
     inkscape:connector-curvature="0" />
  <path
     style="opacity:0.656;fill:#50a9f0;fill-opacity:1;stroke:#50a9f0;stroke-width:0.05084746;stroke-opacity:1"
     d=""
     id="path4165"
     inkscape:connector-curvature="0" />
  <path
     style="opacity:0.656;fill:#50a9f0;fill-opacity:1;stroke:#50a9f0;stroke-width:0.03595458;stroke-opacity:1"
     d=""
     id="path4169"
     inkscape:connector-curvature="0" />
  <path
     style="opacity:0.656;fill:#50a9f0;fill-opacity:1;stroke:#50a9f0;stroke-width:0.03595458;stroke-opacity:1"
     d=""
     id="path4171"
     inkscape:connector-curvature="0" />
  <path
     style="opacity:0.656;fill:#50a9f0;fill-opacity:1;stroke:#50a9f0;stroke-width:0.01271186;stroke-opacity:1"
     d="m 4.6968314,22.593674 c -6.572e-4,-0.03201 0.3368284,-1.017855 1.1020773,-3.219333 0.4787695,-1.377331 0.9024419,-2.598378 0.9414944,-2.713437 0.039053,-0.11506 0.072889,-0.203546 0.075193,-0.196635 0.0023,0.0069 -0.013002,0.06342 -0.034013,0.125581 -0.021011,0.06216 -0.035966,0.115251 -0.033233,0.117983 0.00944,0.0094 0.1238854,-0.351963 0.1156664,-0.365261 -0.00908,-0.01469 0.055879,-0.221667 0.066295,-0.211252 0.00356,0.0036 -0.00273,0.0335 -0.013987,0.06652 -0.011253,0.03303 -0.018223,0.06228 -0.015489,0.06502 0.00273,0.0027 0.050873,-0.131234 0.106975,-0.297706 0.3643859,-1.081247 0.5674932,-1.693906 0.6018347,-1.81539 0.02174,-0.07691 0.041154,-0.141741 0.043141,-0.144076 0.00199,-0.0023 0.00195,0.02913 -8.9e-5,0.06992 -0.00476,0.0955 -0.03119,0.19713 -0.048479,0.186445 -0.00782,-0.0048 -0.00938,-0.002 -0.00381,0.007 0.010912,0.01766 -0.00665,0.07882 -0.1537532,0.535333 -0.0597,0.185276 -0.1133608,0.338664 -0.1192468,0.340864 -0.00589,0.0022 -0.00755,0.01221 -0.0037,0.02225 0.00385,0.01003 8.492e-4,0.01825 -0.00667,0.01825 -0.00752,0 -0.01038,0.0086 -0.00636,0.01907 0.00402,0.01049 0.00116,0.01907 -0.00636,0.01907 -0.00753,0 -0.010026,0.0095 -0.00556,0.02115 0.00577,0.01504 0.00343,0.01825 -0.00812,0.01112 -0.012161,-0.0075 -0.013955,-0.0029 -0.00715,0.01857 0.00659,0.02078 0.00486,0.026 -0.00636,0.01907 -0.011212,-0.0069 -0.012951,-0.0017 -0.00636,0.01907 0.00659,0.02078 0.00486,0.026 -0.00636,0.01907 -0.011212,-0.0069 -0.012951,-0.0017 -0.00636,0.01907 0.00659,0.02078 0.00486,0.026 -0.00636,0.01907 -0.011212,-0.0069 -0.012951,-0.0017 -0.00636,0.01907 0.00659,0.02078 0.00486,0.026 -0.00636,0.01907 -0.011212,-0.0069 -0.012951,-0.0017 -0.00636,0.01907 0.00659,0.02078 0.00486,0.026 -0.00636,0.01907 -0.011212,-0.0069 -0.012951,-0.0017 -0.00636,0.01907 0.00659,0.02078 0.00486,0.026 -0.00636,0.01907 -0.011212,-0.0069 -0.012951,-0.0017 -0.00636,0.01907 0.00659,0.02078 0.00486,0.026 -0.00636,0.01907 -0.011212,-0.0069 -0.012951,-0.0017 -0.00636,0.01907 0.0058,0.01827 0.00439,0.02571 -0.00392,0.02058 -0.00772,-0.0048 -0.032225,0.05007 -0.060354,0.13506 -0.075146,0.227045 -0.7323402,2.15538 -0.9602467,2.817549 -0.1140387,0.331332 -0.209164,0.59696 -0.2113894,0.590283 -0.00223,-0.0067 0.067722,-0.222996 0.1554386,-0.48071 0.1143638,-0.336003 0.1555867,-0.472436 0.1457061,-0.482233 -0.00987,-0.0098 -0.011376,-0.0073 -0.00531,0.0086 0.00481,0.01265 0.00257,0.02225 -0.0052,0.02225 -0.00752,0 -0.01038,0.0086 -0.00636,0.01907 0.00402,0.01049 0.00116,0.01907 -0.00636,0.01907 -0.00752,0 -0.01038,0.0086 -0.00636,0.01907 0.00402,0.01049 0.00116,0.01907 -0.00636,0.01907 -0.00752,0 -0.01038,0.0086 -0.00636,0.01907 0.00402,0.01049 0.00116,0.01907 -0.00636,0.01907 -0.00752,0 -0.01038,0.0086 -0.00636,0.01907 0.00402,0.01049 0.00116,0.01907 -0.00636,0.01907 -0.00753,0 -0.010026,0.0095 -0.00556,0.02115 0.00513,0.01338 0.00309,0.01804 -0.00557,0.01269 -0.00886,-0.0055 -0.011156,0.0012 -0.00651,0.01897 0.0046,0.01758 0.00231,0.02443 -0.00636,0.01907 -0.00867,-0.0054 -0.010952,0.0015 -0.00636,0.01907 0.00488,0.01866 0.00251,0.02455 -0.0074,0.01843 -0.00945,-0.0058 -0.011906,-0.0021 -0.007,0.01072 0.00416,0.01085 0.00142,0.01973 -0.0061,0.01973 -0.00752,0 -0.01038,0.0086 -0.00636,0.01907 0.00402,0.01049 0.00116,0.01907 -0.00636,0.01907 -0.00752,0 -0.01038,0.0086 -0.00636,0.01907 0.00402,0.01049 0.00116,0.01907 -0.00636,0.01907 -0.00752,0 -0.01038,0.0086 -0.00636,0.01907 0.00402,0.01049 0.00116,0.01907 -0.00636,0.01907 -0.00752,0 -0.01038,0.0086 -0.00636,0.01907 0.00402,0.01049 6.47e-4,0.01907 -0.00751,0.01907 -0.00815,0 -0.01187,0.0048 -0.00826,0.01061 0.00968,0.01567 -0.01995,0.103946 -0.032324,0.0963 -0.00582,-0.0036 -0.00717,0.0023 -0.00301,0.01319 0.00416,0.01085 0.00142,0.01973 -0.0061,0.01973 -0.00752,0 -0.01038,0.0086 -0.00636,0.01907 0.00402,0.01049 0.00116,0.01907 -0.00636,0.01907 -0.00752,0 -0.01038,0.0086 -0.00636,0.01907 0.00402,0.01049 0.00116,0.01907 -0.00636,0.01907 -0.00752,0 -0.01038,0.0086 -0.00636,0.01907 0.00402,0.01049 0.00116,0.01907 -0.00636,0.01907 -0.00752,0 -0.01038,0.0086 -0.00636,0.01907 0.00402,0.01049 6.47e-4,0.01907 -0.00751,0.01907 -0.00815,0 -0.011573,0.0053 -0.0076,0.01168 0.00689,0.01115 -0.053351,0.191179 -0.068407,0.204421 -0.00397,0.0035 -0.00883,0.02066 -0.010779,0.03814 -0.00195,0.01748 -0.00914,0.0337 -0.015969,0.03604 -0.00683,0.0023 -0.0097,0.0087 -0.00637,0.01405 0.00333,0.0054 -0.071338,0.232275 -0.1659188,0.504211 -0.094581,0.271936 -0.2805871,0.811907 -0.4133479,1.199937 -0.1327609,0.38803 -0.292677,0.851563 -0.355369,1.030074 -0.1187195,0.338045 -0.1818337,0.533073 -0.1747905,0.540116 0.00728,0.0073 0.330555,-0.228652 1.001844,-0.731145 1.0315013,-0.772131 1.3381785,-0.998181 1.3495712,-0.994765 0.00583,0.0017 0.010598,-0.0018 0.010598,-0.008 0,-0.01512 0.2391024,-0.193998 0.2652355,-0.198433 0.01143,-0.0019 0.019351,-0.0099 0.017603,-0.01773 -0.00175,-0.0078 0.00254,-0.01492 0.00953,-0.01579 0.00699,-8.74e-4 0.019862,-0.0026 0.028602,-0.0038 0.00874,-0.0012 0.01446,-0.0091 0.012712,-0.01748 -0.00286,-0.01376 0.012663,-0.02072 0.037756,-0.01694 0.00503,7.59e-4 0.015333,-0.01017 0.022884,-0.02427 0.00755,-0.01411 0.018876,-0.02247 0.025165,-0.01859 0.00629,0.0039 0.017731,-0.0047 0.025424,-0.01907 0.00769,-0.01437 0.019461,-0.02275 0.026151,-0.01862 0.00669,0.0041 0.015583,-0.0014 0.019762,-0.01228 0.00418,-0.01089 0.012328,-0.01688 0.018108,-0.0133 0.00578,0.0036 0.018052,-0.0043 0.02727,-0.01743 0.00922,-0.01316 0.02248,-0.02613 0.029472,-0.02881 0.00699,-0.0027 0.011282,-0.0092 0.00953,-0.01442 -0.00175,-0.0052 0.00254,-0.01025 0.00953,-0.01112 0.00699,-8.75e-4 0.019862,-0.0026 0.028602,-0.0038 0.00874,-0.0012 0.01446,-0.0091 0.012712,-0.01748 -0.00175,-0.0084 0.00254,-0.01603 0.00953,-0.0169 0.00699,-8.75e-4 0.019862,-0.0026 0.028602,-0.0038 0.00874,-0.0012 0.01446,-0.0091 0.012712,-0.01748 -0.00175,-0.0084 0.00254,-0.01603 0.00953,-0.0169 0.00699,-8.74e-4 0.019862,-0.0026 0.028602,-0.0038 0.00874,-0.0012 0.01446,-0.0091 0.012712,-0.01748 -0.00175,-0.0084 0.00254,-0.01603 0.00953,-0.0169 0.00699,-8.75e-4 0.019862,-0.0026 0.028602,-0.0038 0.00874,-0.0012 0.014226,-0.0098 0.012192,-0.01904 -0.00225,-0.01026 0.00361,-0.01407 0.01496,-0.0097 0.02148,0.0082 0.050389,-0.0203 0.036297,-0.03584 -0.00518,-0.0057 4.309e-4,-0.0069 0.012474,-0.0025 0.014245,0.0051 0.028683,-0.0018 0.041314,-0.01987 0.010679,-0.01525 0.019606,-0.02216 0.019839,-0.01536 2.326e-4,0.0068 0.011673,-0.0011 0.025424,-0.01765 0.01375,-0.01651 0.025191,-0.02509 0.025424,-0.01907 2.327e-4,0.006 0.010243,-7.96e-4 0.022246,-0.01514 0.012002,-0.01435 0.027543,-0.02865 0.034535,-0.03178 0.00699,-0.0031 0.011048,-0.01069 0.00901,-0.01679 -0.00203,-0.0061 0.0047,-0.0079 0.01496,-0.0039 0.02148,0.0082 0.050389,-0.0203 0.036297,-0.03584 -0.00518,-0.0057 1.691e-4,-0.007 0.011893,-0.0028 0.023611,0.0084 0.053819,-0.01898 0.038955,-0.03537 -0.00518,-0.0057 1.69e-4,-0.007 0.011893,-0.0028 0.023611,0.0084 0.053819,-0.01898 0.038955,-0.03537 -0.00518,-0.0057 1.691e-4,-0.007 0.011893,-0.0028 0.023611,0.0084 0.053819,-0.01898 0.038955,-0.03537 -0.00518,-0.0057 1.691e-4,-0.007 0.011893,-0.0028 0.023611,0.0084 0.053819,-0.01898 0.038955,-0.03537 -0.00518,-0.0057 4.309e-4,-0.0069 0.012474,-0.0025 0.013574,0.0049 0.028071,-9.63e-4 0.038136,-0.01533 0.00893,-0.01275 0.020083,-0.02252 0.024783,-0.02171 0.019604,0.0034 0.1753387,-0.122431 0.1674209,-0.135242 -0.00535,-0.0087 -9.877e-4,-0.0109 0.011698,-0.006 0.022646,0.0087 0.052502,-0.0191 0.037862,-0.03524 -0.00518,-0.0057 1.691e-4,-0.007 0.011893,-0.0028 0.023611,0.0084 0.053819,-0.01898 0.038955,-0.03537 -0.00518,-0.0057 1.691e-4,-0.007 0.011893,-0.0028 0.023265,0.0083 0.054174,-0.0191 0.038955,-0.03456 -0.00518,-0.0053 1.881e-4,-0.0076 0.011936,-0.0052 0.026194,0.0054 0.2930466,-0.190278 0.2825907,-0.207196 -0.00452,-0.0073 -0.014705,-0.0061 -0.025728,0.003 -0.010034,0.0083 -0.021169,0.01221 -0.024744,0.0086 -0.00358,-0.0036 0.055825,-0.05301 0.132001,-0.109862 0.1313443,-0.09802 0.1754183,-0.124484 0.1437302,-0.0863 -0.00779,0.0094 -0.00992,0.02173 -0.00473,0.02745 0.00518,0.0057 -1.69e-4,0.007 -0.011893,0.0028 -0.023611,-0.0084 -0.053819,0.01898 -0.038955,0.03537 0.00518,0.0057 -1.691e-4,0.007 -0.011893,0.0028 -0.023611,-0.0084 -0.053819,0.01898 -0.038955,0.03537 0.00518,0.0057 -1.69e-4,0.007 -0.011893,0.0028 -0.022192,-0.0079 -0.057667,0.02189 -0.039435,0.03316 0.00572,0.0035 0.094835,-0.0568 0.1980348,-0.134077 0.1031998,-0.07728 0.1904871,-0.137654 0.1939718,-0.134169 0.00767,0.0077 -3.1621383,2.373734 -4.3098835,3.217048 -0.237814,0.174735 -0.4495502,0.330366 -0.4705248,0.345845 -0.020974,0.01548 -0.043216,0.02846 -0.049426,0.02884 -0.00621,3.8e-4 -0.016133,0.0083 -0.022051,0.01767 -0.00592,0.0093 -0.010848,0.01271 -0.010955,0.0075 z M 9.1508735,19.25152 c -0.00435,-0.007 -0.01462,-0.0059 -0.025144,0.0029 -0.00979,0.0081 -0.01449,0.02012 -0.010448,0.02666 0.00435,0.007 0.01462,0.0059 0.025144,-0.0029 0.00979,-0.0081 0.01449,-0.02012 0.010448,-0.02666 z m -2.8763882,-1.1454 c -0.012555,-0.01246 -0.014015,-0.011 -0.00712,0.0071 0.00477,0.01254 0.011882,0.01959 0.015796,0.01568 0.00391,-0.0039 8.2e-6,-0.01417 -0.00868,-0.02279 z m 0.012712,-0.03814 c -0.012554,-0.01246 -0.014015,-0.011 -0.00712,0.0071 0.00477,0.01254 0.011882,0.01959 0.015795,0.01568 0.00391,-0.0039 8.1e-6,-0.01417 -0.00868,-0.02279 z m 0.013465,-0.0375 c -0.00912,-0.0091 -0.015042,-0.0099 -0.015042,-0.0019 0,0.01697 0.015033,0.032 0.023517,0.02352 0.00361,-0.0036 -2.008e-4,-0.01334 -0.00847,-0.02161 z m 0.012712,-0.03814 c -0.00912,-0.0091 -0.015042,-0.0099 -0.015042,-0.0019 0,0.01697 0.015033,0.032 0.023517,0.02352 0.00361,-0.0036 -2.009e-4,-0.01334 -0.00847,-0.02161 z m 0.041037,-0.06963 c 0.014371,-0.04218 0.016364,-0.06361 0.0068,-0.07309 -0.00955,-0.0095 -0.011039,-0.0069 -0.00507,0.0088 0.00481,0.01265 0.00257,0.02225 -0.0052,0.02225 -0.00752,0 -0.01038,0.0086 -0.00636,0.01907 0.00402,0.01049 0.00116,0.01907 -0.00636,0.01907 -0.00752,0 -0.01038,0.0086 -0.00636,0.01907 0.00402,0.01049 6.471e-4,0.01907 -0.00751,0.01907 -0.00815,0 -0.011287,0.0057 -0.00697,0.01271 0.012434,0.02012 0.015464,0.01627 0.037011,-0.04696 z m 0.02177,-0.108969 c -0.012555,-0.01246 -0.014015,-0.011 -0.00712,0.0071 0.00477,0.01254 0.011882,0.01959 0.015796,0.01568 0.00391,-0.0039 8.2e-6,-0.01417 -0.00868,-0.02279 z m 0.012712,-0.03814 c -0.012554,-0.01246 -0.014015,-0.011 -0.00712,0.0071 0.00477,0.01254 0.011882,0.01959 0.015795,0.01568 0.00391,-0.0039 8.1e-6,-0.01417 -0.00868,-0.02279 z m 0.013465,-0.0375 c -0.00912,-0.0091 -0.015042,-0.0099 -0.015042,-0.0019 0,0.01697 0.015033,0.032 0.023517,0.02352 0.00361,-0.0036 -2.008e-4,-0.01334 -0.00847,-0.02161 z m 0.012712,-0.03814 c -0.00912,-0.0091 -0.015042,-0.0099 -0.015042,-0.0019 0,0.01697 0.015033,0.032 0.023517,0.02352 0.00361,-0.0036 -2.009e-4,-0.01334 -0.00847,-0.02161 z m 0.012712,-0.03814 c -0.00912,-0.0091 -0.015042,-0.0099 -0.015042,-0.0019 0,0.01697 0.015033,0.032 0.023517,0.02352 0.00361,-0.0036 -2.009e-4,-0.01334 -0.00847,-0.02161 z m 0.012712,-0.03814 c -0.00912,-0.0091 -0.015042,-0.0099 -0.015042,-0.0019 0,0.01697 0.015033,0.032 0.023517,0.02352 0.00361,-0.0036 -2.008e-4,-0.01334 -0.00847,-0.02161 z m 0.012712,-0.03814 c -0.00912,-0.0091 -0.015042,-0.0099 -0.015042,-0.0019 0,0.01697 0.015033,0.032 0.023517,0.02352 0.00361,-0.0036 -2.009e-4,-0.01334 -0.00847,-0.02161 z m 0.012712,-0.03814 c -0.00912,-0.0091 -0.015042,-0.0099 -0.015042,-0.0019 0,0.01697 0.015033,0.032 0.023517,0.02352 0.00361,-0.0036 -2.009e-4,-0.01334 -0.00847,-0.02161 z m 0.061229,-0.12997 c 0,-0.0031 -0.00572,-0.0091 -0.012712,-0.01346 -0.00699,-0.0043 -0.012712,-0.0018 -0.012712,0.0056 0,0.0074 0.00572,0.01346 0.012712,0.01346 0.00699,0 0.012712,-0.0025 0.012712,-0.0056 z m 0.012712,-0.03814 c 0,-0.0031 -0.00572,-0.0091 -0.012712,-0.01346 -0.00699,-0.0043 -0.012712,-0.0018 -0.012712,0.0056 0,0.0074 0.00572,0.01346 0.012712,0.01346 0.00699,0 0.012712,-0.0025 0.012712,-0.0056 z m 0.012712,-0.03814 c 0,-0.0031 -0.00572,-0.0091 -0.012712,-0.01346 -0.00699,-0.0043 -0.012712,-0.0018 -0.012712,0.0056 0,0.0074 0.00572,0.01346 0.012712,0.01346 0.00699,0 0.012712,-0.0025 0.012712,-0.0056 z m 0.00233,-0.048 c -0.00912,-0.0091 -0.015042,-0.0099 -0.015042,-0.0019 0,0.01697 0.015033,0.032 0.023517,0.02352 0.00361,-0.0036 -2.008e-4,-0.01334 -0.00847,-0.02161 z m 0.012712,-0.03813 c -0.00912,-0.0091 -0.015042,-0.0099 -0.015042,-0.0019 0,0.01697 0.015033,0.032 0.023517,0.02352 0.00361,-0.0036 -2.009e-4,-0.01334 -0.00847,-0.02161 z m 0.012712,-0.03814 c -0.00912,-0.0091 -0.015042,-0.0099 -0.015042,-0.0019 0,0.0072 0.00381,0.01695 0.00847,0.02161 0.00466,0.0047 0.01143,0.0055 0.015042,0.0019 0.00361,-0.0036 -2.008e-4,-0.01334 -0.00847,-0.02161 z m 0.014768,-0.02957 c -0.00414,-0.01079 -0.010254,-0.01689 -0.013586,-0.01356 -0.00333,0.0033 -0.00229,0.01216 0.00232,0.01962 0.012535,0.02028 0.019861,0.01634 0.011265,-0.0061 z m 0.012712,-0.03814 c -0.00414,-0.01079 -0.010254,-0.01689 -0.013586,-0.01356 -0.00333,0.0033 -0.00229,0.01216 0.00232,0.01962 0.012535,0.02028 0.019861,0.01634 0.011265,-0.0061 z m 0.012712,-0.03814 c -0.00414,-0.01079 -0.010254,-0.01689 -0.013586,-0.01356 -0.00333,0.0033 -0.00229,0.01216 0.00232,0.01962 0.012535,0.02028 0.019861,0.01634 0.011265,-0.0061 z m 0.012922,-0.03759 c -0.00402,-0.01049 -0.00116,-0.01907 0.00636,-0.01907 0.00752,0 0.01038,-0.0086 0.00636,-0.01907 -0.00402,-0.01049 -6.471e-4,-0.01907 0.00751,-0.01907 0.00815,0 0.011583,-0.0052 0.00762,-0.01165 -0.00396,-0.0064 -0.00128,-0.02722 0.00596,-0.04625 0.00724,-0.01904 0.010771,-0.037 0.00785,-0.03991 -0.0086,-0.0086 -0.05907,0.15092 -0.051586,0.16303 0.01113,0.01801 0.017837,0.0126 0.00993,-0.008 z"
     id="path4175"
     inkscape:connector-curvature="0" />
</svg>
